<svg width="80" height="80" viewBox="0 0 80 80" fill="none" xmlns="http://www.w3.org/2000/svg">
<circle cx="40" cy="40" r="38.9299" fill="url(#paint0_linear_471_11471)" stroke="white" stroke-width="2.14011"/>
<path d="M56.9321 24.1861H50.9603L48.0239 19.7826C47.8666 19.5468 47.6535 19.3534 47.4036 19.2197C47.1537 19.0859 46.8747 19.0158 46.5912 19.0156H32.8034C32.5199 19.0158 32.2409 19.0859 31.991 19.2197C31.7411 19.3534 31.528 19.5468 31.3707 19.7826L28.4322 24.1861H22.4624C21.0912 24.1861 19.776 24.7308 18.8064 25.7005C17.8367 26.6701 17.292 27.9852 17.292 29.3565V53.4853C17.292 54.8566 17.8367 56.1717 18.8064 57.1414C19.776 58.111 21.0912 58.6558 22.4624 58.6558H56.9321C58.3034 58.6558 59.6186 58.111 60.5882 57.1414C61.5579 56.1717 62.1026 54.8566 62.1026 53.4853V29.3565C62.1026 27.9852 61.5579 26.6701 60.5882 25.7005C59.6186 24.7308 58.3034 24.1861 56.9321 24.1861ZM58.6556 53.4853C58.6556 53.9424 58.474 54.3808 58.1508 54.704C57.8276 55.0272 57.3892 55.2088 56.9321 55.2088H22.4624C22.0054 55.2088 21.567 55.0272 21.2438 54.704C20.9205 54.3808 20.739 53.9424 20.739 53.4853V29.3565C20.739 28.8994 20.9205 28.4611 21.2438 28.1378C21.567 27.8146 22.0054 27.633 22.4624 27.633H29.3564C29.6402 27.6332 29.9197 27.5633 30.17 27.4295C30.4203 27.2957 30.6337 27.1022 30.7912 26.8661L33.7254 22.4626H45.667L48.6034 26.8661C48.7609 27.1022 48.9743 27.2957 49.2246 27.4295C49.4749 27.5633 49.7544 27.6332 50.0382 27.633H56.9321C57.3892 27.633 57.8276 27.8146 58.1508 28.1378C58.474 28.4611 58.6556 28.8994 58.6556 29.3565V53.4853ZM39.6973 31.08C37.8225 31.08 35.9898 31.636 34.431 32.6775C32.8721 33.7191 31.6571 35.1996 30.9397 36.9317C30.2222 38.6638 30.0345 40.5697 30.4003 42.4085C30.766 44.2473 31.6688 45.9363 32.9945 47.262C34.3202 48.5877 36.0092 49.4905 37.848 49.8562C39.6868 50.222 41.5927 50.0342 43.3248 49.3168C45.0569 48.5993 46.5373 47.3844 47.5789 45.8255C48.6205 44.2667 49.1765 42.434 49.1765 40.5592C49.1736 38.046 48.174 35.6366 46.3969 33.8596C44.6199 32.0825 42.2105 31.0829 39.6973 31.08ZM39.6973 46.5914C38.5042 46.5914 37.338 46.2376 36.346 45.5748C35.354 44.9119 34.5808 43.9698 34.1243 42.8676C33.6677 41.7654 33.5483 40.5525 33.781 39.3824C34.0138 38.2122 34.5883 37.1374 35.4319 36.2938C36.2755 35.4502 37.3503 34.8756 38.5205 34.6429C39.6906 34.4101 40.9035 34.5296 42.0057 34.9862C43.108 35.4427 44.0501 36.2159 44.7129 37.2079C45.3757 38.1999 45.7295 39.3661 45.7295 40.5592C45.7295 42.159 45.094 43.6933 43.9627 44.8246C42.8314 45.9559 41.2971 46.5914 39.6973 46.5914Z" fill="white"/>
<defs>
<linearGradient id="paint0_linear_471_11471" x1="40" y1="-7.67636e-07" x2="65.7576" y2="80" gradientUnits="userSpaceOnUse">
<stop/>
<stop offset="1"/>
</linearGradient>
</defs>
</svg>
