<svg width="80" height="80" viewBox="0 0 80 80" fill="none" xmlns="http://www.w3.org/2000/svg">
<g filter="url(#filter0_b_471_11123)">
<path d="M0 40C0 17.9086 17.9086 0 40 0V0C62.0914 0 80 17.9086 80 40V40C80 62.0914 62.0914 80 40 80V80C17.9086 80 0 62.0914 0 40V40Z" fill="black"/>
<path d="M40 78.8889C18.5223 78.8889 1.11111 61.4777 1.11111 40C1.11111 18.5223 18.5223 1.11111 40 1.11111C61.4777 1.11111 78.8889 18.5223 78.8889 40C78.8889 61.4777 61.4777 78.8889 40 78.8889Z" stroke="white" stroke-opacity="0.15" stroke-width="2.22222"/>
<mask id="mask0_471_11123" style="mask-type:alpha" maskUnits="userSpaceOnUse" x="17" y="17" width="46" height="46">
<path fill-rule="evenodd" clip-rule="evenodd" d="M31.5764 25.1724H48.4209C52.9745 25.1724 56.6654 27.9876 56.6654 32.5494V43.3684C56.6654 48.0207 55.0759 50.8968 51.7896 54.1829L49.6172 56.009C48.962 56.6654 47.8427 56.2004 47.8427 55.2724V52.4411C47.8427 50.3588 45.87 49.7516 43.7914 49.7516H31.5764C27.0229 49.7516 23.332 46.9364 23.332 42.3746V32.5494C23.332 27.9876 27.0229 25.1724 31.5764 25.1724ZM35.8549 36.5819C34.7938 36.5819 33.9337 35.4291 33.9337 34.007C33.9337 32.5849 34.7938 31.4321 35.8549 31.4321C36.916 31.4321 37.7761 32.5849 37.7761 34.007C37.7761 35.4291 36.916 36.5819 35.8549 36.5819ZM42.256 34.007C42.256 35.4291 43.1161 36.582 44.1772 36.582C45.2383 36.582 46.0984 35.4291 46.0984 34.007C46.0984 32.5849 45.2383 31.4321 44.1772 31.4321C43.1161 31.4321 42.256 32.5849 42.256 34.007ZM44.4917 43.323C43.0993 44.2181 39.121 45.1132 35.8389 43.323L34.9438 42.7262L33.7503 41.8311C33.4519 41.5327 32.9557 40.8354 33.4519 40.3392C33.7894 40.0017 34.0487 39.7425 35.2421 40.3392C37.0324 41.2344 41.329 42.5472 44.1934 40.6376C44.8896 40.2398 46.103 39.7425 46.5804 40.3392C46.9782 40.8365 46.8787 41.8311 44.4917 43.323Z" fill="white"/>
</mask>
<g mask="url(#mask0_471_11123)">
<rect x="17.7778" y="17.7778" width="44.4444" height="44.4444" fill="white"/>
</g>
</g>
<defs>
<filter id="filter0_b_471_11123" x="-177.778" y="-177.778" width="435.556" height="435.556" filterUnits="userSpaceOnUse" color-interpolation-filters="sRGB">
<feFlood flood-opacity="0" result="BackgroundImageFix"/>
<feGaussianBlur in="BackgroundImageFix" stdDeviation="88.8889"/>
<feComposite in2="SourceAlpha" operator="in" result="effect1_backgroundBlur_471_11123"/>
<feBlend mode="normal" in="SourceGraphic" in2="effect1_backgroundBlur_471_11123" result="shape"/>
</filter>
</defs>
</svg>
