<svg width="80" height="80" viewBox="0 0 80 80" fill="none" xmlns="http://www.w3.org/2000/svg">
<path d="M40 0C17.9445 0 0 17.9445 0 40C0 62.0555 17.9445 80 40 80C62.0555 80 80 62.0555 80 40C80 17.9445 62.0555 0 40 0ZM40 72.0037C22.354 72.0037 7.99627 57.6469 7.99627 40C7.99627 22.3531 22.354 7.99627 40 7.99627C57.646 7.99627 72.0037 22.354 72.0037 40C72.0037 57.646 57.646 72.0037 40 72.0037Z" fill="black"/>
<path d="M43.9373 38.8463C43.9693 38.642 44.0003 38.4376 44.0003 38.2244V20.7872C44.0003 18.5793 42.2101 16.7891 40.0022 16.7891C37.7944 16.7891 36.0041 18.5793 36.0041 20.7872V38.2244C36.0041 38.5647 35.9614 42.4349 37.2168 43.5606L49.5888 54.6514C50.352 55.3364 51.3063 55.6723 52.256 55.6723C53.3524 55.6723 54.4452 55.2236 55.2351 54.3431C56.7091 52.6985 56.5714 50.1717 54.9268 48.6977L43.9373 38.8463Z" fill="black"/>
</svg>
