<svg width="100" height="100" viewBox="0 0 100 100" fill="none" xmlns="http://www.w3.org/2000/svg">
<mask id="mask0_471_11114" style="mask-type:alpha" maskUnits="userSpaceOnUse" x="0" y="0" width="100" height="100">
<path fill-rule="evenodd" clip-rule="evenodd" d="M86.2188 23.3483C85.4229 21.1588 84.1571 19.1704 82.5104 17.523C80.8636 15.8756 78.8761 14.6092 76.6875 13.813C72.5938 12.5 68.875 12.5 61.3125 12.5H38.625C31.125 12.5 27.3437 12.5 23.3125 13.7505C21.1207 14.55 19.1312 15.8212 17.4843 17.4742C15.8373 19.1272 14.5733 21.1217 13.7812 23.317C12.5 27.3812 12.5 31.1328 12.5 38.6359V61.3641C12.5 68.8985 12.5 72.6188 13.75 76.683C14.5459 78.8725 15.8117 80.8609 17.4584 82.5083C19.1051 84.1557 21.0927 85.422 23.2812 86.2182C27.3438 87.5 31.0938 87.5 38.5938 87.5H61.3437C68.875 87.5 72.625 87.5 76.6562 86.2495C78.8538 85.4538 80.8495 84.1844 82.502 82.5312C84.1546 80.878 85.4234 78.8814 86.2188 76.683C87.5 72.6188 87.5 68.8672 87.5 61.3641V38.6984C87.5 31.164 87.5 27.4125 86.2188 23.3483ZM50.0008 63.3342C57.3646 63.3342 63.3342 57.3646 63.3342 50.0008C63.3342 42.637 57.3646 36.6675 50.0008 36.6675C42.637 36.6675 36.6675 42.637 36.6675 50.0008C36.6675 57.3646 42.637 63.3342 50.0008 63.3342ZM50.0008 70.8342C61.5067 70.8342 70.8342 61.5067 70.8342 50.0008C70.8342 38.4949 61.5067 29.1675 50.0008 29.1675C38.4949 29.1675 29.1675 38.4949 29.1675 50.0008C29.1675 61.5067 38.4949 70.8342 50.0008 70.8342ZM79.1675 27.0825C79.1675 30.5343 76.3693 33.3325 72.9175 33.3325C69.4657 33.3325 66.6675 30.5343 66.6675 27.0825C66.6675 23.6307 69.4657 20.8325 72.9175 20.8325C76.3693 20.8325 79.1675 23.6307 79.1675 27.0825ZM75.0008 27.0825C75.0008 28.2331 74.0681 29.1659 72.9175 29.1659C71.7669 29.1659 70.8341 28.2331 70.8341 27.0825C70.8341 25.9319 71.7669 24.9992 72.9175 24.9992C74.0681 24.9992 75.0008 25.9319 75.0008 27.0825Z" fill="white"/>
</mask>
<g mask="url(#mask0_471_11114)">
<rect width="100" height="100" fill="black"/>
</g>
</svg>
