<svg width="80" height="80" viewBox="0 0 80 80" fill="none" xmlns="http://www.w3.org/2000/svg">
<rect width="80" height="80" rx="40" fill="black"/>
<path d="M47.356 32.6443C47.5013 32.7895 47.6165 32.9618 47.6952 33.1515C47.7738 33.3412 47.8143 33.5445 47.8143 33.7498C47.8143 33.9551 47.7738 34.1585 47.6952 34.3482C47.6165 34.5378 47.5013 34.7102 47.356 34.8553L34.856 47.3553C34.7109 47.5005 34.5385 47.6156 34.3488 47.6942C34.1592 47.7727 33.9559 47.8132 33.7506 47.8132C33.5453 47.8132 33.342 47.7727 33.1523 47.6942C32.9626 47.6156 32.7903 47.5005 32.6451 47.3553C32.4999 47.2101 32.3848 47.0378 32.3062 46.8481C32.2276 46.6584 32.1872 46.4551 32.1872 46.2498C32.1872 46.0445 32.2276 45.8412 32.3062 45.6515C32.3848 45.4619 32.4999 45.2895 32.6451 45.1443L45.1451 32.6443C45.2902 32.4991 45.4625 32.3838 45.6522 32.3052C45.8419 32.2266 46.0452 32.1861 46.2506 32.1861C46.4559 32.1861 46.6592 32.2266 46.8489 32.3052C47.0386 32.3838 47.2109 32.4991 47.356 32.6443ZM57.1099 22.8904C56.0943 21.8747 54.8885 21.0689 53.5614 20.5192C52.2343 19.9695 50.812 19.6865 49.3756 19.6865C47.9391 19.6865 46.5168 19.9695 45.1897 20.5192C43.8626 21.0689 42.6568 21.8747 41.6412 22.8904L35.7701 28.7596C35.4769 29.0528 35.3122 29.4504 35.3122 29.865C35.3122 30.2797 35.4769 30.6773 35.7701 30.9705C36.0633 31.2637 36.4609 31.4284 36.8756 31.4284C37.2902 31.4284 37.6878 31.2637 37.981 30.9705L43.8521 25.1111C45.3226 23.673 47.3009 22.8727 49.3577 22.884C51.4146 22.8953 53.384 23.7174 54.8385 25.1716C56.293 26.6259 57.1154 28.5952 57.1271 30.652C57.1388 32.7088 56.3389 34.6873 54.9009 36.158L49.0279 42.0291C48.7347 42.322 48.5699 42.7194 48.5697 43.1339C48.5695 43.5483 48.734 43.9459 49.0269 44.2391C49.3199 44.5323 49.7173 44.6971 50.1317 44.6973C50.5461 44.6974 50.9437 44.533 51.2369 44.24L57.1099 38.3592C58.1257 37.3435 58.9314 36.1377 59.4812 34.8107C60.0309 33.4836 60.3138 32.0612 60.3138 30.6248C60.3138 29.1884 60.0309 27.766 59.4812 26.439C58.9314 25.1119 58.1257 23.9061 57.1099 22.8904ZM42.0201 49.0272L36.149 54.8982C35.4265 55.637 34.5646 56.225 33.6133 56.6284C32.6619 57.0317 31.64 57.2423 30.6068 57.248C29.5735 57.2537 28.5493 57.0544 27.5936 56.6615C26.6379 56.2687 25.7696 55.6902 25.039 54.9594C24.3084 54.2287 23.73 53.3603 23.3373 52.4045C22.9447 51.4487 22.7455 50.4245 22.7514 49.3912C22.7572 48.358 22.968 47.3361 23.3715 46.3848C23.7751 45.4336 24.3633 44.5718 25.1021 43.8494L30.9713 37.9803C31.2644 37.6871 31.4292 37.2894 31.4292 36.8748C31.4292 36.4602 31.2644 36.0625 30.9713 35.7693C30.6781 35.4762 30.2804 35.3114 29.8658 35.3114C29.4512 35.3114 29.0535 35.4762 28.7603 35.7693L22.8912 41.6404C20.8399 43.6917 19.6875 46.4739 19.6875 49.3748C19.6875 52.2758 20.8399 55.0579 22.8912 57.1092C24.9425 59.1605 27.7246 60.3129 30.6256 60.3129C33.5265 60.3129 36.3086 59.1605 38.3599 57.1092L44.231 51.2361C44.524 50.943 44.6884 50.5454 44.6882 50.131C44.6881 49.7165 44.5232 49.3191 44.23 49.0262C43.9369 48.7332 43.5393 48.5688 43.1249 48.569C42.7104 48.5692 42.313 48.734 42.0201 49.0272Z" fill="white"/>
</svg>
