<svg width="81" height="45" viewBox="0 0 81 45" fill="none" xmlns="http://www.w3.org/2000/svg">
<rect width="80.0588" height="44.7059" fill="black"/>
<path d="M22.3904 23.8824V26.2542H16.828V31.9577H14.1739V26.2542H8.61154V23.8824H14.1739V18.1789H16.828V23.8824H22.3904ZM29.0442 14.6213L28.1971 20.2401C28.6865 19.8071 29.2701 19.4683 29.9477 19.2236C30.6442 18.9789 31.3971 18.8566 32.2065 18.8566C33.543 18.8566 34.7195 19.1389 35.7359 19.7036C36.7712 20.2495 37.5618 21.0401 38.1077 22.0754C38.6724 23.1107 38.9548 24.3436 38.9548 25.7742C38.9548 27.0542 38.6536 28.2213 38.0512 29.2754C37.4489 30.3295 36.6018 31.1671 35.5101 31.7883C34.4371 32.4095 33.2042 32.7201 31.8112 32.7201C30.5312 32.7201 29.3736 32.4754 28.3383 31.986C27.3218 31.4966 26.4936 30.8189 25.8536 29.953C25.2324 29.0871 24.8654 28.0989 24.7524 26.9883L27.6324 26.9601C27.7454 27.5624 27.9901 28.1177 28.3665 28.626C28.743 29.1342 29.223 29.5389 29.8065 29.8401C30.4089 30.1413 31.0677 30.2919 31.783 30.2919C32.5359 30.2919 33.2418 30.113 33.9007 29.7554C34.5595 29.3789 35.0865 28.8519 35.4818 28.1742C35.8771 27.4966 36.0748 26.6966 36.0748 25.7742C36.0748 24.4189 35.6983 23.3366 34.9454 22.5271C34.2112 21.7177 33.1289 21.313 31.6983 21.313C30.8701 21.313 30.1454 21.5107 29.5242 21.906C28.9218 22.3013 28.4418 22.8095 28.0842 23.4307L25.1759 23.1483L26.7289 12.193H37.2324V14.6213H29.0442Z" fill="#F2F2F2"/>
<path d="M57.0611 14.0401C56.8539 13.8334 56.5979 13.6822 56.3169 13.6006C56.0358 13.5189 55.7387 13.5093 55.453 13.5727C55.1672 13.6361 54.9021 13.7705 54.6819 13.9634C54.4618 14.1563 54.2938 14.4015 54.1935 14.6765L48.4042 30.6008C48.309 30.8634 48.2783 31.1449 48.3146 31.4219C48.3508 31.6988 48.453 31.963 48.6124 32.1923C48.7719 32.4216 48.9841 32.6092 49.2311 32.7395C49.4781 32.8699 49.7528 32.939 50.0321 32.9412C50.2377 32.9398 50.4415 32.9025 50.6343 32.8309L66.5575 27.0405C66.8325 26.9402 67.0779 26.7724 67.2709 26.5523C67.4639 26.3322 67.5984 26.0671 67.6619 25.7813C67.7255 25.4956 67.716 25.1984 67.6344 24.9173C67.5527 24.6362 67.4016 24.3801 67.195 24.1728L57.0611 14.0401ZM56.1424 28.953L52.2821 25.0927L53.7336 21.0989L60.1361 27.5015L56.1424 28.953ZM50.0762 31.1589L51.6203 26.9225L54.317 29.6191L50.0762 31.1589ZM61.9703 26.8353L54.3997 19.2647L55.8336 15.3085L65.9178 25.3927L61.9703 26.8353ZM62.4115 16.1765C62.4281 15.58 62.5725 14.994 62.835 14.4581C63.4196 13.2901 64.5225 12.6471 65.9409 12.6471C66.6799 12.6471 67.1542 12.3945 67.4464 11.8519C67.6003 11.5483 67.6886 11.2157 67.7056 10.8758C67.7065 10.6417 67.8003 10.4177 67.9664 10.2528C68.1325 10.088 68.3573 9.99584 68.5913 9.99672C68.8253 9.9976 69.0494 10.0914 69.2142 10.2575C69.3791 10.4236 69.4712 10.6484 69.4703 10.8824C69.4703 12.3008 68.5306 14.4118 65.9409 14.4118C65.2019 14.4118 64.7277 14.6644 64.4354 15.207C64.2815 15.5106 64.1932 15.8432 64.1762 16.1831C64.1758 16.299 64.1525 16.4136 64.1078 16.5205C64.063 16.6274 63.9977 16.7244 63.9154 16.8061C63.8332 16.8877 63.7357 16.9523 63.6285 16.9963C63.5212 17.0402 63.4064 17.0626 63.2905 17.0622C63.1747 17.0617 63.06 17.0385 62.9531 16.9937C62.8463 16.949 62.7492 16.8836 62.6676 16.8014C62.586 16.7191 62.5213 16.6216 62.4774 16.5144C62.4335 16.4072 62.4111 16.2924 62.4115 16.1765ZM59.7644 12.6471V10C59.7644 9.76601 59.8574 9.54158 60.0229 9.37611C60.1884 9.21064 60.4128 9.11768 60.6468 9.11768C60.8808 9.11768 61.1052 9.21064 61.2707 9.37611C61.4362 9.54158 61.5292 9.76601 61.5292 10V12.6471C61.5292 12.8811 61.4362 13.1055 61.2707 13.271C61.1052 13.4365 60.8808 13.5294 60.6468 13.5294C60.4128 13.5294 60.1884 13.4365 60.0229 13.271C59.8574 13.1055 59.7644 12.8811 59.7644 12.6471ZM70.9769 21.7287C71.0589 21.8107 71.1238 21.908 71.1681 22.0151C71.2124 22.1222 71.2352 22.2369 71.2351 22.3528C71.2351 22.4687 71.2122 22.5834 71.1678 22.6905C71.1234 22.7975 71.0584 22.8948 70.9764 22.9767C70.8944 23.0586 70.7971 23.1235 70.69 23.1678C70.5829 23.2121 70.4682 23.2349 70.3523 23.2349C70.2364 23.2348 70.1217 23.2119 70.0146 23.1676C69.9076 23.1232 69.8103 23.0581 69.7284 22.9761L67.9637 21.2114C67.7981 21.0459 67.7051 20.8213 67.7051 20.5872C67.7051 20.353 67.7981 20.1285 67.9637 19.9629C68.1293 19.7973 68.3538 19.7043 68.588 19.7043C68.8221 19.7043 69.0467 19.7973 69.2122 19.9629L70.9769 21.7287ZM71.5141 17.0136L68.867 17.896C68.645 17.97 68.4027 17.9528 68.1933 17.8481C67.984 17.7434 67.8248 17.5599 67.7508 17.3379C67.6768 17.1159 67.6941 16.8735 67.7987 16.6642C67.9034 16.4549 68.0869 16.2957 68.3089 16.2217L70.956 15.3394C71.178 15.2654 71.4203 15.2826 71.6297 15.3872C71.839 15.4919 71.9982 15.6754 72.0722 15.8975C72.1462 16.1195 72.129 16.3618 72.0243 16.5711C71.9196 16.7805 71.7361 16.9396 71.5141 17.0136Z" fill="white"/>
</svg>
