<svg width="80" height="85" viewBox="0 0 80 85" fill="none" xmlns="http://www.w3.org/2000/svg">
<g clip-path="url(#clip0_471_11477)">
<path d="M71.6587 30.417H29.0024V22.292C29.0024 19.4188 30.2865 16.6633 32.5721 14.6317C34.8577 12.6 37.9576 11.4587 41.1899 11.4587C47.0437 11.4587 52.311 15.1826 53.4384 20.1219C53.6058 20.8199 54.0763 21.4309 54.7477 21.8222C55.4191 22.2135 56.2371 22.3535 57.0239 22.2116C57.8107 22.0698 58.5028 21.6576 58.9496 21.0647C59.3965 20.4718 59.562 19.7462 59.4103 19.0454C57.6888 11.5094 50.0259 6.04199 41.1899 6.04199C36.343 6.04647 31.696 7.75996 28.2687 10.8065C24.8414 13.853 22.9137 17.9836 22.9087 22.292V30.417H10.7212C9.10503 30.417 7.55506 30.9877 6.41226 32.0035C5.26946 33.0193 4.62744 34.3971 4.62744 35.8337V73.7503C4.62744 75.1869 5.26946 76.5647 6.41226 77.5805C7.55506 78.5963 9.10503 79.167 10.7212 79.167H71.6587C73.2749 79.167 74.8248 78.5963 75.9676 77.5805C77.1104 76.5647 77.7524 75.1869 77.7524 73.7503V35.8337C77.7524 34.3971 77.1104 33.0193 75.9676 32.0035C74.8248 30.9877 73.2749 30.417 71.6587 30.417ZM71.6587 73.7503H10.7212V35.8337H71.6587V73.7503Z" fill="black"/>
<path d="M54.9112 44.7427L49.9877 39.4791C49.3451 38.8339 48.5031 38.4636 47.6218 38.4388C46.7405 38.414 45.8814 38.7364 45.2079 39.3447L29.0359 56.6336C28.4551 57.2598 28.0934 58.0805 28.0117 58.958L27.239 66.9686C27.2148 67.2499 27.2489 67.5336 27.339 67.7992C27.4291 68.0648 27.5729 68.306 27.7601 68.5054C27.928 68.6834 28.1271 68.8243 28.3461 68.9199C28.565 69.0155 28.7994 69.0639 29.0359 69.0625H29.1976L36.6907 68.3325C37.5115 68.2451 38.2792 67.8585 38.8649 67.2375L55.037 49.9486C55.6646 49.2397 56.0039 48.2936 55.9803 47.3178C55.9567 46.342 55.5723 45.416 54.9112 44.7427ZM48.8017 51.1588L43.9861 46.0105L47.49 42.1685L52.3955 47.4129L48.8017 51.1588Z" fill="black"/>
</g>
<defs>
<clipPath id="clip0_471_11477">
<rect width="80" height="84.1667" fill="white"/>
</clipPath>
</defs>
</svg>
