<svg width="80" height="75" viewBox="0 0 80 75" fill="none" xmlns="http://www.w3.org/2000/svg">
<path d="M36.6405 45.675C39.9912 43.6105 42.535 40.6028 43.8959 37.0967C45.2567 33.5905 45.3623 29.7722 44.1971 26.2062C43.0319 22.6402 40.6577 19.516 37.4256 17.2954C34.1935 15.0749 30.2751 13.876 26.2499 13.876C22.2247 13.876 18.3063 15.0749 15.0742 17.2954C11.8421 19.516 9.46791 22.6402 8.30269 26.2062C7.13748 29.7722 7.24311 33.5905 8.60397 37.0967C9.96482 40.6028 12.5087 43.6105 15.8593 45.675C9.79832 47.7426 4.62212 51.5685 1.10304 56.5819C0.918085 56.8363 0.789618 57.1222 0.725102 57.4229C0.660586 57.7237 0.661309 58.0334 0.727227 58.3339C0.793146 58.6344 0.922945 58.9198 1.10908 59.1734C1.29522 59.4271 1.53398 59.644 1.81148 59.8115C2.08899 59.9791 2.3997 60.0939 2.72556 60.1493C3.05142 60.2047 3.38593 60.1996 3.70965 60.1343C4.03336 60.069 4.33982 59.9448 4.61122 59.7689C4.88261 59.593 5.11353 59.3689 5.29054 59.1097C7.5605 55.8784 10.6667 53.2231 14.3269 51.3849C17.9872 49.5468 22.0855 48.584 26.2499 48.584C30.4143 48.584 34.5127 49.5468 38.1729 51.3849C41.8332 53.2231 44.9393 55.8784 47.2093 59.1097C47.576 59.6141 48.1424 59.9647 48.7861 60.0856C49.4298 60.2066 50.0991 60.0882 50.6493 59.7561C51.1994 59.424 51.5863 58.9048 51.7261 58.3108C51.866 57.7168 51.7477 57.0958 51.3968 56.5819C47.8777 51.5685 42.7015 47.7426 36.6405 45.675ZM12.4999 31.2367C12.4999 28.7198 13.3063 26.2593 14.8172 24.1665C16.3281 22.0737 18.4755 20.4426 20.988 19.4794C23.5005 18.5162 26.2652 18.2642 28.9324 18.7552C31.5996 19.2462 34.0497 20.4583 35.9726 22.2381C37.8956 24.0178 39.2052 26.2854 39.7357 28.754C40.2663 31.2226 39.994 33.7814 38.9533 36.1068C37.9125 38.4322 36.1502 40.4197 33.889 41.8181C31.6278 43.2164 28.9694 43.9628 26.2499 43.9628C22.6045 43.959 19.1095 42.617 16.5318 40.2312C13.954 37.8454 12.504 34.6107 12.4999 31.2367ZM78.1687 59.7836C77.6133 60.1188 76.9369 60.2361 76.2882 60.1097C75.6395 59.9833 75.0715 59.6236 74.7093 59.1097C72.442 55.8765 69.3363 53.22 65.6753 51.3826C62.0143 49.5452 57.9145 48.5853 53.7499 48.5905C53.0869 48.5905 52.451 48.3467 51.9821 47.9128C51.5133 47.4788 51.2499 46.8903 51.2499 46.2766C51.2499 45.663 51.5133 45.0744 51.9821 44.6405C52.451 44.2066 53.0869 43.9628 53.7499 43.9628C55.7748 43.961 57.7743 43.5454 59.6055 42.7455C61.4367 41.9456 63.0545 40.7813 64.3431 39.3356C65.6318 37.89 66.5595 36.1988 67.0601 34.3829C67.5607 32.567 67.6218 30.6711 67.239 28.8308C66.8562 26.9905 66.0389 25.2511 64.8456 23.737C63.6523 22.2229 62.1123 20.9715 60.3359 20.072C58.5594 19.1726 56.5902 18.6474 54.569 18.534C52.5478 18.4206 50.5245 18.7218 48.6437 19.416C48.337 19.5387 48.0069 19.6032 47.6728 19.6058C47.3387 19.6085 47.0074 19.5491 46.6986 19.4312C46.3897 19.3133 46.1095 19.1393 45.8745 18.9195C45.6395 18.6997 45.4545 18.4385 45.3305 18.1514C45.2064 17.8643 45.1457 17.5571 45.1521 17.248C45.1585 16.9388 45.2317 16.634 45.3676 16.3514C45.5034 16.0689 45.699 15.8145 45.9429 15.6031C46.1867 15.3918 46.4739 15.2278 46.7874 15.1209C51.092 13.532 55.8798 13.4749 60.2272 14.9604C64.5746 16.446 68.1736 19.369 70.3299 23.1656C72.4862 26.9622 73.0469 31.3633 71.904 35.52C70.761 39.6766 67.9954 43.2943 64.1405 45.675C70.2015 47.7426 75.3777 51.5685 78.8968 56.5819C79.2589 57.0958 79.3856 57.7219 79.2491 58.3223C79.1125 58.9227 78.7239 59.4484 78.1687 59.7836Z" fill="black"/>
</svg>
